<svg width="24" height="24" viewBox="0 0 24 24" fill="none" xmlns="http://www.w3.org/2000/svg">
<path d="M18.7671 9.4752C18.7671 9.4752 19.9723 9.88488 17.0435 6.95613C15.9946 5.90724 14.6583 5.19293 13.2034 4.90355C11.7486 4.61416 10.2406 4.76268 8.87011 5.33034C7.49967 5.898 6.32833 6.85929 5.50421 8.09266C4.6801 9.32603 4.24024 10.7761 4.24024 12.2594C4.24024 13.7428 4.6801 15.1928 5.50421 16.4262C6.32832 17.6596 7.49966 18.6209 8.87011 19.1885C10.2406 19.7562 11.7486 19.9047 13.2034 19.6153C14.6583 19.3259 15.9946 18.6116 17.0435 17.5627" stroke="white" stroke-width="2" stroke-miterlimit="10" stroke-linecap="round"/>
<path d="M19.5625 4.43726V9.74056H14.2592" stroke="white" stroke-width="2" stroke-linecap="round" stroke-linejoin="round"/>
</svg>
