<svg width="24" height="24" viewBox="0 0 24 24" fill="none" xmlns="http://www.w3.org/2000/svg">
<path fill-rule="evenodd" clip-rule="evenodd" d="M9.9999 15.9998C13.3136 15.9998 15.9998 13.3136 15.9998 9.9999C15.9998 6.68623 13.3136 3.99998 9.9999 3.99998C6.68623 3.99998 3.99998 6.68623 3.99998 9.9999C3.99998 13.3136 6.68623 15.9998 9.9999 15.9998ZM9.9999 17.9998C14.4181 17.9998 17.9998 14.4181 17.9998 9.9999C17.9998 5.58168 14.4181 2 9.9999 2C5.58168 2 2 5.58168 2 9.9999C2 14.4181 5.58168 17.9998 9.9999 17.9998Z" fill="#111111"/>
<path d="M14.4049 15.7854C14.0237 15.4041 14.0237 14.786 14.4049 14.4048C14.7862 14.0236 15.4043 14.0236 15.7855 14.4048L21.3098 19.9291C21.6911 20.3104 21.6911 20.9285 21.3098 21.3097C20.9286 21.6909 20.3105 21.6909 19.9293 21.3097L14.4049 15.7854Z" fill="#111111"/>
</svg>
