<svg width="24" height="24" viewBox="0 0 24 24" fill="none" xmlns="http://www.w3.org/2000/svg">
<rect x="1" y="1" width="2" height="2" fill="white"/>
<rect x="1" y="5" width="2" height="2" fill="white"/>
<rect x="21" y="5" width="2" height="2" fill="white"/>
<rect x="1" y="9" width="2" height="2" fill="white"/>
<rect x="21" y="9" width="2" height="2" fill="white"/>
<rect x="1" y="13" width="2" height="2" fill="white"/>
<rect x="21" y="13" width="2" height="2" fill="white"/>
<rect x="1" y="17" width="2" height="2" fill="white"/>
<rect x="21" y="17" width="2" height="2" fill="white"/>
<rect x="1" y="21" width="2" height="2" fill="white"/>
<rect x="5" y="1" width="2" height="2" fill="white"/>
<rect x="5" y="21" width="2" height="2" fill="white"/>
<rect x="9" y="1" width="2" height="2" fill="white"/>
<rect x="9" y="21" width="2" height="2" fill="white"/>
<rect x="13" y="1" width="2" height="2" fill="white"/>
<rect x="13" y="21" width="2" height="2" fill="white"/>
<rect x="17" y="1" width="2" height="2" fill="white"/>
<rect x="17" y="21" width="2" height="2" fill="white"/>
<rect x="21" y="1" width="2" height="2" fill="white"/>
<rect x="21" y="21" width="2" height="2" fill="white"/>
<rect x="2" y="14" width="8" height="8" stroke="white" stroke-width="2"/>
<path d="M10 14L16 8" stroke="white" stroke-width="2" stroke-linecap="round" stroke-linejoin="round"/>
<path d="M10.5 7.5H16.5V13.5" stroke="white" stroke-width="2" stroke-linecap="round" stroke-linejoin="round"/>
</svg>
