<svg width="512" height="512" viewBox="0 0 512 512" fill="none" xmlns="http://www.w3.org/2000/svg">
<rect width="512" height="512" fill="#21A099"/>
<path d="M111.579 396.877C114.29 396.877 116.47 396.796 118.122 396.635C119.774 396.474 121.044 396.151 121.933 395.667C122.865 395.143 123.521 394.397 123.902 393.429C124.284 392.461 124.58 391.151 124.792 389.497H127.142V407.221H124.792C124.538 405.608 124.199 404.317 123.775 403.35C123.352 402.382 122.674 401.656 121.743 401.172C120.811 400.648 119.541 400.325 117.931 400.204C116.365 400.043 114.247 399.962 111.579 399.962V412.423C111.579 413.713 111.749 414.802 112.087 415.689C112.469 416.577 113.083 417.302 113.93 417.867C114.777 418.391 115.899 418.774 117.296 419.016C118.694 419.218 120.409 419.319 122.441 419.319C124.855 419.319 126.888 419.157 128.54 418.835C130.233 418.512 131.631 417.948 132.732 417.141C133.833 416.335 134.722 415.266 135.4 413.935C136.077 412.564 136.649 410.85 137.115 408.794H139.656L138.639 422.646H95.5718V420.226C96.9693 420.186 98.1127 420.065 99.002 419.863C99.8913 419.661 100.569 419.319 101.035 418.835C101.501 418.351 101.818 417.665 101.988 416.778C102.157 415.891 102.242 414.742 102.242 413.33V385.384C102.242 383.973 102.157 382.844 101.988 381.997C101.86 381.11 101.585 380.424 101.162 379.94C100.738 379.416 100.124 379.073 99.3196 378.912C98.5574 378.71 97.541 378.569 96.2706 378.488V376.069H136.416L136.861 387.925H134.129C133.875 386.231 133.473 384.84 132.923 383.751C132.372 382.622 131.61 381.735 130.636 381.089C129.662 380.404 128.391 379.94 126.824 379.698C125.3 379.416 123.415 379.275 121.171 379.275H113.993C112.892 379.275 112.214 379.416 111.96 379.698C111.706 379.94 111.579 380.545 111.579 381.513V396.877Z" fill="white"/>
<path d="M145.288 407.221H147.766C148.359 411.052 149.968 414.076 152.593 416.294C155.219 418.472 158.459 419.561 162.312 419.561C163.879 419.561 165.319 419.379 166.632 419.016C167.944 418.653 169.067 418.149 169.998 417.504C170.93 416.818 171.65 416.032 172.158 415.145C172.666 414.217 172.92 413.189 172.92 412.06C172.92 411.092 172.751 410.265 172.412 409.58C172.116 408.854 171.523 408.168 170.633 407.523C169.744 406.838 168.516 406.152 166.949 405.467C165.425 404.781 163.434 403.995 160.978 403.108C156.024 401.293 152.36 399.196 149.989 396.817C147.618 394.397 146.432 391.554 146.432 388.288C146.432 386.392 146.813 384.658 147.575 383.086C148.337 381.513 149.396 380.162 150.751 379.033C152.149 377.904 153.8 377.037 155.706 376.432C157.654 375.786 159.792 375.464 162.122 375.464C164.281 375.464 166.314 375.786 168.22 376.432C170.125 377.077 172.01 378.045 173.873 379.335L175.016 376.311H176.541L177.24 389.376H174.762C173.746 386.07 172.158 383.549 169.998 381.815C167.839 380.041 165.34 379.154 162.503 379.154C159.877 379.154 157.739 379.779 156.087 381.029C154.478 382.239 153.673 383.811 153.673 385.747C153.673 386.594 153.821 387.36 154.118 388.046C154.414 388.691 154.965 389.316 155.769 389.921C156.574 390.526 157.675 391.151 159.073 391.796C160.47 392.401 162.27 393.086 164.472 393.853C167.436 394.941 169.956 396.05 172.031 397.18C174.148 398.268 175.863 399.458 177.176 400.748C178.531 401.999 179.526 403.329 180.162 404.741C180.797 406.152 181.115 407.705 181.115 409.398C181.115 411.455 180.649 413.33 179.717 415.024C178.785 416.718 177.473 418.169 175.779 419.379C174.127 420.589 172.137 421.537 169.808 422.222C167.521 422.908 164.98 423.251 162.185 423.251C159.644 423.251 157.357 422.928 155.325 422.283C153.292 421.597 151.196 420.508 149.036 419.016L147.766 422.646H146.241L145.288 407.221Z" fill="white"/>
<path d="M235.252 389.376H232.521C232.394 387.4 232.076 385.767 231.568 384.477C231.102 383.146 230.425 382.098 229.535 381.331C228.646 380.525 227.566 379.98 226.296 379.698C225.025 379.376 223.543 379.214 221.849 379.214C220.198 379.214 218.864 379.255 217.847 379.335C216.873 379.376 216.111 379.476 215.561 379.638C215.052 379.759 214.714 379.94 214.544 380.182C214.375 380.424 214.29 380.726 214.29 381.089V412.786C214.29 414.076 214.375 415.185 214.544 416.113C214.756 417.04 215.158 417.806 215.751 418.411C216.344 418.976 217.212 419.42 218.356 419.742C219.499 420.024 221.002 420.186 222.866 420.226V422.646H196.25V420.226C198.156 420.186 199.68 420.024 200.824 419.742C201.967 419.42 202.835 418.976 203.428 418.411C204.063 417.806 204.465 417.04 204.635 416.113C204.847 415.185 204.952 414.076 204.952 412.786V381.089C204.952 380.726 204.868 380.424 204.698 380.182C204.571 379.94 204.275 379.759 203.809 379.638C203.343 379.476 202.666 379.376 201.776 379.335C200.929 379.255 199.807 379.214 198.41 379.214C196.885 379.214 195.424 379.295 194.027 379.456C192.629 379.577 191.401 379.98 190.343 380.666C189.284 381.311 188.416 382.319 187.738 383.69C187.103 385.021 186.764 386.917 186.722 389.376H184.244L184.88 376.069H234.617L235.252 389.376Z" fill="white"/>
<path d="M235.732 418.774C235.732 417.484 236.177 416.395 237.066 415.508C237.998 414.58 239.141 414.117 240.496 414.117C241.894 414.117 243.058 414.58 243.99 415.508C244.922 416.395 245.387 417.484 245.387 418.774C245.387 420.024 244.922 421.093 243.99 421.98C243.058 422.827 241.894 423.251 240.496 423.251C239.141 423.251 237.998 422.827 237.066 421.98C236.177 421.093 235.732 420.024 235.732 418.774Z" fill="white"/>
<path d="M284.859 412.725C284.859 414.298 284.923 415.568 285.05 416.536C285.219 417.464 285.537 418.21 286.003 418.774C286.511 419.299 287.209 419.661 288.099 419.863C289.03 420.065 290.258 420.186 291.783 420.226V422.646H267.899V420.226C269.55 420.186 270.863 420.065 271.837 419.863C272.854 419.621 273.616 419.258 274.124 418.774C274.674 418.25 275.034 417.544 275.204 416.657C275.416 415.73 275.521 414.56 275.521 413.149V391.191C275.521 388.852 275.5 386.917 275.458 385.384C275.458 383.852 275.373 382.844 275.204 382.36C274.95 381.472 274.209 380.928 272.981 380.726C271.795 380.525 269.995 380.424 267.581 380.424V378.004C268.725 377.964 270.037 377.883 271.52 377.762C273.044 377.601 274.59 377.42 276.157 377.218C277.766 376.976 279.333 376.714 280.857 376.432C282.382 376.149 283.716 375.827 284.859 375.464V412.725Z" fill="white"/>
<path d="M296.201 391.736C296.201 389.477 296.667 387.36 297.598 385.384C298.572 383.408 299.885 381.694 301.537 380.243C303.188 378.75 305.115 377.581 307.317 376.734C309.561 375.887 311.954 375.464 314.495 375.464C317.248 375.464 319.767 375.988 322.054 377.037C324.341 378.045 326.289 379.476 327.898 381.331C329.55 383.186 330.82 385.404 331.709 387.985C332.641 390.566 333.107 393.389 333.107 396.454C333.107 400.123 332.514 403.591 331.328 406.858C330.142 410.084 328.533 412.927 326.5 415.387C324.468 417.806 322.096 419.722 319.386 421.133C316.676 422.545 313.775 423.251 310.684 423.251C308.99 423.251 307.402 423.069 305.919 422.706C304.437 422.384 303.146 421.92 302.045 421.315C300.986 420.71 300.139 420.004 299.504 419.198C298.869 418.351 298.551 417.444 298.551 416.476C298.551 415.306 298.932 414.399 299.694 413.754C300.457 413.068 301.473 412.725 302.743 412.725C303.59 412.725 304.268 412.907 304.776 413.27C305.327 413.633 305.771 414.076 306.11 414.601C306.491 415.125 306.83 415.71 307.126 416.355C307.423 416.96 307.783 417.524 308.206 418.048C308.672 418.573 309.244 419.016 309.921 419.379C310.599 419.742 311.509 419.924 312.653 419.924C314.093 419.924 315.427 419.5 316.655 418.653C317.883 417.766 318.941 416.577 319.831 415.084C320.762 413.552 321.482 411.758 321.99 409.701C322.499 407.644 322.753 405.406 322.753 402.987L322.562 402.866C321.207 404.317 319.746 405.386 318.179 406.072C316.612 406.757 314.77 407.1 312.653 407.1C310.324 407.1 308.143 406.717 306.11 405.951C304.12 405.144 302.383 404.055 300.901 402.684C299.461 401.313 298.318 399.7 297.471 397.845C296.624 395.95 296.201 393.913 296.201 391.736ZM322.562 393.49C322.562 388.61 321.842 384.941 320.402 382.481C319.005 380.021 316.951 378.791 314.241 378.791C311.573 378.791 309.604 379.819 308.333 381.876C307.063 383.932 306.428 387.138 306.428 391.494C306.428 395.446 307.021 398.45 308.206 400.506C309.434 402.523 311.213 403.531 313.542 403.531C315.405 403.531 317.036 402.966 318.433 401.837C319.831 400.708 321.207 398.914 322.562 396.454V393.49Z" fill="white"/>
<path d="M339.003 391.736C339.003 389.477 339.469 387.36 340.401 385.384C341.375 383.408 342.688 381.694 344.339 380.243C345.991 378.75 347.918 377.581 350.12 376.734C352.364 375.887 354.757 375.464 357.298 375.464C360.05 375.464 362.57 375.988 364.857 377.037C367.143 378.045 369.091 379.476 370.701 381.331C372.352 383.186 373.623 385.404 374.512 387.985C375.444 390.566 375.909 393.389 375.909 396.454C375.909 400.123 375.316 403.591 374.131 406.858C372.945 410.084 371.336 412.927 369.303 415.387C367.27 417.806 364.899 419.722 362.189 421.133C359.478 422.545 356.578 423.251 353.486 423.251C351.792 423.251 350.204 423.069 348.722 422.706C347.24 422.384 345.948 421.92 344.847 421.315C343.789 420.71 342.942 420.004 342.306 419.198C341.671 418.351 341.354 417.444 341.354 416.476C341.354 415.306 341.735 414.399 342.497 413.754C343.259 413.068 344.276 412.725 345.546 412.725C346.393 412.725 347.071 412.907 347.579 413.27C348.129 413.633 348.574 414.076 348.913 414.601C349.294 415.125 349.633 415.71 349.929 416.355C350.225 416.96 350.585 417.524 351.009 418.048C351.475 418.573 352.046 419.016 352.724 419.379C353.402 419.742 354.312 419.924 355.455 419.924C356.895 419.924 358.229 419.5 359.457 418.653C360.685 417.766 361.744 416.577 362.633 415.084C363.565 413.552 364.285 411.758 364.793 409.701C365.301 407.644 365.555 405.406 365.555 402.987L365.365 402.866C364.01 404.317 362.549 405.386 360.982 406.072C359.415 406.757 357.573 407.1 355.455 407.1C353.126 407.1 350.945 406.717 348.913 405.951C346.922 405.144 345.186 404.055 343.704 402.684C342.264 401.313 341.121 399.7 340.274 397.845C339.427 395.95 339.003 393.913 339.003 391.736ZM365.365 393.49C365.365 388.61 364.645 384.941 363.205 382.481C361.808 380.021 359.754 378.791 357.043 378.791C354.376 378.791 352.406 379.819 351.136 381.876C349.866 383.932 349.23 387.138 349.23 391.494C349.23 395.446 349.823 398.45 351.009 400.506C352.237 402.523 354.016 403.531 356.345 403.531C358.208 403.531 359.838 402.966 361.236 401.837C362.633 400.708 364.01 398.914 365.365 396.454V393.49Z" fill="white"/>
<path d="M395.463 401.474C393.684 402.603 392.329 403.975 391.398 405.588C390.508 407.201 390.064 408.975 390.064 410.911C390.064 413.653 390.868 415.83 392.478 417.444C394.087 419.057 396.268 419.863 399.02 419.863C400.46 419.863 401.773 419.661 402.959 419.258C404.144 418.855 405.161 418.311 406.008 417.625C406.897 416.899 407.575 416.052 408.04 415.084C408.549 414.076 408.803 412.987 408.803 411.818C408.803 410.124 408.146 408.632 406.833 407.342C405.521 406.051 403.467 404.821 400.672 403.652L395.463 401.474ZM407.659 395.546C410.454 397.24 412.614 399.297 414.138 401.716C415.663 404.096 416.425 406.636 416.425 409.338C416.425 411.354 415.981 413.229 415.091 414.963C414.244 416.657 413.037 418.129 411.471 419.379C409.946 420.589 408.104 421.537 405.944 422.222C403.784 422.908 401.434 423.251 398.893 423.251C396.522 423.251 394.299 422.968 392.223 422.404C390.191 421.799 388.412 420.992 386.888 419.984C385.405 418.936 384.241 417.706 383.394 416.294C382.547 414.883 382.124 413.35 382.124 411.697C382.124 409.398 382.865 407.261 384.347 405.285C385.829 403.309 387.968 401.615 390.762 400.204C388.349 398.672 386.485 396.837 385.173 394.7C383.902 392.562 383.267 390.284 383.267 387.864C383.267 384.195 384.686 381.19 387.523 378.851C388.878 377.722 390.508 376.875 392.414 376.311C394.362 375.746 396.501 375.464 398.83 375.464C400.862 375.464 402.789 375.686 404.61 376.129C406.431 376.573 408.04 377.198 409.438 378.004C410.878 378.972 411.979 380.162 412.741 381.573C413.503 382.985 413.884 384.517 413.884 386.17C413.884 388.026 413.397 389.679 412.423 391.131C411.449 392.582 409.861 394.054 407.659 395.546ZM402.959 394.276C404.187 393.308 405.118 392.199 405.754 390.949C406.431 389.699 406.77 388.409 406.77 387.078C406.77 385.908 406.558 384.82 406.135 383.811C405.711 382.803 405.118 381.936 404.356 381.21C403.636 380.444 402.768 379.859 401.752 379.456C400.778 379.013 399.698 378.791 398.512 378.791C397.369 378.791 396.31 378.972 395.336 379.335C394.404 379.658 393.579 380.122 392.859 380.726C392.139 381.291 391.567 381.977 391.144 382.783C390.762 383.59 390.572 384.457 390.572 385.384C390.572 388.247 393.261 390.667 398.639 392.643L402.959 394.276Z" fill="white"/>
<path d="M272.693 237.446C271.61 237.478 270.531 237.287 269.523 236.887C267.852 235.77 267.295 233.664 269.137 229.323L268.709 230.226L302.73 140.321L339.193 237.446H272.693ZM449.782 338.781H429.901C426.331 338.468 422.932 337.112 420.122 334.882C417.312 332.652 415.215 329.645 414.09 326.233L324.11 95.799C321.24 88.4072 316.912 88.751 316.912 88.751H316.098H314.084C313.432 88.8082 312.814 89.0722 312.321 89.5049C311.828 89.9376 311.485 90.5164 311.342 91.1576L216.006 342.649L216.52 343.38H225.09L225.861 342.778L263.995 242.302H341.121L373.599 328.252L375.056 332.12C378.098 339.598 380.583 342.735 389.11 343.466H449.654C450.339 343.466 451.453 342.95 451.453 340.93C451.489 340.668 451.47 340.401 451.397 340.147C451.324 339.893 451.199 339.657 451.029 339.455C450.86 339.252 450.65 339.088 450.413 338.972C450.176 338.856 449.917 338.791 449.654 338.781" fill="white"/>
<path d="M223.572 202.433L181.495 189.196C170.004 185.959 159.047 181.05 148.974 174.628C129.521 164.013 120.652 125.593 148.974 105.352C160.123 97.8381 173.207 93.7325 186.637 93.5333C222.415 94.3069 242.339 120.737 249.28 150.948C249.568 153.073 250.678 154.998 252.37 156.308C254.061 157.619 256.199 158.21 258.321 157.953V122.026L257.807 120.049C251.251 109.692 227.813 89.4077 188.565 88.806H184.966C171.082 88.259 157.322 91.6236 145.246 98.5185C104.798 124.046 102.742 156.664 110.968 180.172C119.195 203.679 133.678 212.36 165.813 223.147L205.833 235.352C225.371 241.282 252.494 254.519 252.494 286.922C252.494 309.484 240.025 343.306 191.265 343.435C178.924 343.435 163.371 342.747 148.846 334.152C129.093 324.483 115.125 295.474 110.668 274.545C110.286 273.013 109.451 271.631 108.274 270.581C107.097 269.531 105.632 268.861 104.07 268.658H103.084L102.399 269.216V315.071C108.783 330.198 139.762 341.587 148.289 343.864C164.271 348.162 171.512 348.162 191.136 348.162H194.692C249.58 348.162 282.958 309.484 282.958 266.079C282.958 218.205 240.925 207.719 223.572 202.218" fill="white"/>
</svg>
