<svg width="512" height="512" viewBox="0 0 512 512" fill="none" xmlns="http://www.w3.org/2000/svg">
<rect width="512" height="512" fill="#21A099"/>
<path d="M275.996 275.487C274.883 275.52 273.776 275.325 272.742 274.914C271.027 273.767 270.455 271.606 272.346 267.151L271.906 268.078L306.822 175.807L344.245 275.487H275.996ZM457.745 379.49H437.34C433.677 379.168 430.188 377.777 427.304 375.488C424.42 373.199 422.268 370.113 421.113 366.611L328.766 130.113C325.82 122.527 321.378 122.88 321.378 122.88H320.543H318.476C317.806 122.939 317.172 123.21 316.666 123.654C316.16 124.098 315.808 124.692 315.661 125.35L217.817 383.46L218.345 384.209H227.14L227.931 383.592L267.069 280.472H346.224L379.557 368.684L381.052 372.653C384.174 380.328 386.725 383.548 395.476 384.298H457.613C458.316 384.298 459.46 383.768 459.46 381.695C459.497 381.426 459.477 381.153 459.402 380.892C459.327 380.631 459.199 380.389 459.025 380.181C458.851 379.973 458.635 379.804 458.392 379.685C458.149 379.566 457.883 379.5 457.613 379.49" fill="white"/>
<path d="M225.58 239.553L182.397 225.969C170.603 222.646 159.358 217.608 149.02 211.017C129.055 200.122 119.952 160.691 149.02 139.917C160.462 132.206 173.89 127.993 187.674 127.788C224.393 128.582 244.841 155.707 251.965 186.714C252.261 188.894 253.4 190.87 255.136 192.215C256.872 193.56 259.066 194.167 261.244 193.903V157.031L260.716 155.002C253.988 144.372 229.934 123.554 189.653 122.936H185.959C171.709 122.375 157.587 125.828 145.194 132.904C103.681 159.104 101.571 192.58 110.014 216.706C118.457 240.832 133.321 249.742 166.302 260.812L207.375 273.339C227.427 279.425 255.263 293.01 255.263 326.266C255.263 349.422 242.467 384.133 192.423 384.266C179.758 384.266 163.795 383.56 148.888 374.739C128.615 364.815 114.279 335.043 109.706 313.564C109.313 311.991 108.457 310.573 107.249 309.495C106.041 308.417 104.537 307.729 102.934 307.521H101.922L101.219 308.094V355.156C107.771 370.681 139.565 382.369 148.316 384.707C164.719 389.117 172.15 389.117 192.291 389.117H195.941C252.273 389.117 286.53 349.422 286.53 304.875C286.53 255.74 243.39 244.978 225.58 239.333" fill="white"/>
</svg>
