<svg width="708" height="112" viewBox="0 0 708 112" fill="none" xmlns="http://www.w3.org/2000/svg">
<g clip-path="url(#clip0_6_24)">
<path d="M259.184 85.5476H255.82L254.497 85.4006C253.316 85.1429 252.244 84.5204 251.435 83.6207C250.626 82.7211 250.119 81.5898 249.987 80.3865V39.289C249.928 38.4261 249.557 37.6143 248.943 37.0054C248.329 36.3965 247.514 36.0322 246.652 35.9806H229.433C229.351 35.9682 229.268 35.9727 229.188 35.9937C229.109 36.0148 229.034 36.0519 228.97 36.1029C228.905 36.1539 228.851 36.2176 228.812 36.2902C228.773 36.3627 228.749 36.4425 228.742 36.5246C228.742 36.9363 228.815 37.5686 229.433 37.5686H233.164L234.413 37.7304C235.278 37.997 236.073 38.4553 236.736 39.0714C237.4 39.6874 237.917 40.4453 238.248 41.2887L238.38 41.7445L238.483 42.4209V65.315C238.483 78.225 229.873 86.7092 223.041 87.1209C215.534 86.7533 213.624 80.563 213.624 72.5934V39.289C213.558 38.4259 213.183 37.6156 212.567 37.0076C211.952 36.3996 211.137 36.0348 210.274 35.9806H192.937C192.937 35.9806 192.217 35.9806 192.159 36.5687C192.159 37.0099 192.159 37.5686 192.937 37.5686H197.022L197.8 37.6568C198.785 37.9183 199.686 38.4269 200.419 39.1345C201.151 39.8422 201.691 40.7254 201.988 41.7004L202.105 42.7003V71.4906C202.105 81.1805 205.572 83.8125 207.85 85.4888C210.127 87.165 213.932 88.7825 220.235 88.7825H221.469C230.843 88.7825 235.75 82.9009 238.718 77.1369V85.0036C238.718 85.8858 239.555 87.165 241.656 87.1503H259.125C259.463 87.1503 259.757 87.0621 259.728 86.2975C259.698 85.5329 259.125 85.5476 259.125 85.5476" fill="#4DADA7"/>
<path d="M160.703 87.0915C152.475 86.9445 145.423 83.592 145.423 61.5654C145.423 42.9796 150.374 36.3041 160.703 36.0541C170.987 36.3041 175.983 42.9796 175.983 61.5654C175.983 83.6214 168.93 86.9445 160.703 87.0915V87.0915ZM161.32 34.4366H160.071C147.289 34.4366 132.273 45.8616 132.273 61.5654C132.273 76.6223 146.084 88.7383 160.071 88.7383H161.305C175.277 88.7383 189.117 76.6223 189.117 61.5654C189.117 45.8616 174.087 34.4366 161.305 34.4366" fill="#4DADA7"/>
<path d="M609.254 87.1356C601.026 86.9886 593.974 83.6214 593.974 61.6096C593.974 43.0091 598.925 36.3482 609.254 36.0982C619.538 36.3482 624.534 43.0091 624.534 61.6096C624.534 83.6655 617.467 86.9886 609.254 87.1356V87.1356ZM609.871 34.4955H608.637C595.855 34.4955 580.825 45.8763 580.825 61.6096C580.825 76.6811 594.665 88.7825 608.637 88.7825H609.871C623.829 88.7825 637.669 76.6811 637.669 61.6096C637.669 45.8763 622.653 34.4955 609.871 34.4955Z" fill="#4DADA7"/>
<path d="M560.976 32.0546C562.499 32.0546 563.988 31.6024 565.254 30.7551C566.521 29.9078 567.507 28.7036 568.09 27.2949C568.672 25.8862 568.823 24.3362 568.525 22.8412C568.227 21.3462 567.492 19.9734 566.414 18.8964C565.336 17.8194 563.963 17.0868 562.468 16.7912C560.974 16.4955 559.426 16.6502 558.019 17.2356C556.613 17.821 555.411 18.8109 554.567 20.0799C553.723 21.3489 553.274 22.84 553.277 24.3645C553.277 25.3756 553.476 26.3768 553.863 27.3108C554.25 28.2447 554.818 29.0932 555.533 29.8075C556.248 30.5217 557.097 31.0879 558.031 31.4735C558.964 31.8591 559.965 32.0566 560.976 32.0546" fill="#4DADA7"/>
<path d="M109.545 52.4783L109.324 53.6694C108.959 54.5303 108.289 55.2264 107.444 55.625C106.894 55.855 106.306 55.9797 105.71 55.9926H87.5653C87.2341 55.9421 86.928 55.7861 86.6924 55.5477C86.4569 55.3093 86.3044 55.0012 86.2577 54.6692V54.0811C87.1539 44.6117 90.107 36.4363 99.7891 36.0981C105.593 36.3334 109.574 39.5095 109.574 49.8757C109.574 50.7727 109.574 51.6402 109.574 52.5225L109.545 52.4783ZM86.3458 52.9195V52.7724L86.2724 53.1694V52.9195H86.3458ZM100.803 34.4807H99.5688C84.524 34.4807 72.7262 47.8172 72.7262 61.8889C72.7262 78.0632 84.2889 88.7824 100.289 88.7824H101.523C117.508 88.7824 120.725 77.5045 121.798 74.0785C121.901 73.7844 121.915 72.9462 120.534 72.7698C120.172 72.7065 119.799 72.7698 119.478 72.9492C119.157 73.1286 118.908 73.4131 118.771 73.755C117.596 77.5045 114.569 86.8709 101.141 87.1944C87.5359 86.8562 85.9051 73.7256 85.9051 63.2416C85.9051 60.742 86.0226 59.1833 86.0226 57.6541H119.888C120.441 57.721 121.001 57.6292 121.504 57.3895L122.562 56.3308V54.6104C121.093 39.5683 109.06 34.5395 100.759 34.5395" fill="#4DADA7"/>
<path d="M288.26 85.5329H284.499C283.938 85.5623 283.376 85.4927 282.839 85.3271C282.021 85.0454 281.274 84.591 280.648 83.9948C280.022 83.3986 279.531 82.6745 279.21 81.8717L279.077 80.7101V4.2495L278.974 3.55841C278.788 2.98173 278.459 2.46188 278.017 2.04775C277.575 1.63362 277.035 1.33882 276.447 1.19107L275.772 1.10285H258.406C258.221 1.09066 258.039 1.15167 257.898 1.27272C257.758 1.39377 257.671 1.56513 257.656 1.74983C257.656 2.30858 257.788 2.70558 258.406 2.70558H262.637H263.342C264.344 2.99753 265.251 3.54789 265.973 4.30147C266.695 5.05505 267.206 5.98537 267.456 6.99914L267.559 8.01371V84.636C267.604 85.3134 267.906 85.948 268.403 86.4099C268.9 86.8718 269.554 87.1262 270.233 87.121H288.275C288.657 87.121 288.833 86.8416 288.833 86.2093C288.833 85.5771 288.407 85.5477 288.275 85.5477" fill="#4DADA7"/>
<path d="M707.309 85.5623H703.196C702.134 85.4293 701.127 85.0141 700.279 84.3599C699.432 83.7057 698.775 82.8364 698.377 81.8422L698.141 80.5777V50.5817C698.141 39.4508 690.795 34.5985 680.379 34.5985H679.13C675.059 34.4569 671.037 35.5179 667.565 37.6489C664.092 39.78 661.324 42.8869 659.604 46.5822V39.4949L659.486 38.5097C659.279 37.8113 658.862 37.1937 658.291 36.7412C657.721 36.2886 657.025 36.0231 656.298 35.9806H639.226L638.433 36.7746L639.226 37.5687H643.31L644.603 37.8039C645.402 38.1046 646.13 38.5702 646.737 39.1707C647.345 39.7711 647.819 40.4927 648.129 41.2888C648.252 41.7721 648.34 42.2634 648.394 42.7592V84.239C648.362 84.6475 648.421 85.058 648.568 85.4404C648.715 85.8229 648.946 86.1677 649.243 86.4496C649.54 86.7315 649.896 86.9433 650.286 87.0697C650.675 87.196 651.088 87.2336 651.494 87.1798V87.1798H667.787H669.007L669.8 86.3711L669.007 85.5771H665.069C663.73 85.4094 662.486 84.794 661.539 83.8306C660.593 82.8672 659.999 81.6123 659.854 80.2689V58.5365C659.854 46.0822 668.14 36.6864 678.043 36.2453C683.919 36.4953 686.593 40.8329 686.593 46.891V84.2096V84.489C686.593 84.489 686.491 87.1651 689.782 87.1063H706.061H707.295L708 86.3269L707.295 85.5476L707.309 85.5623Z" fill="#4DADA7"/>
<path d="M577.328 85.5623H573.596H572.685C571.71 85.3731 570.797 84.945 570.028 84.3164C569.259 83.6877 568.658 82.8781 568.277 81.9599L568.131 81.0482V39.2008L567.94 38.1568C567.682 37.5429 567.258 37.0135 566.715 36.6289C566.173 36.2442 565.533 36.0196 564.869 35.9806H547.517L546.739 36.7746L547.517 37.5686H551.661L552.939 37.7598C554.398 38.2683 555.604 39.3221 556.303 40.7006C556.532 41.1559 556.644 41.6615 556.627 42.171V42.5238V84.4301C556.616 84.8256 556.692 85.2186 556.849 85.5817C557.006 85.9448 557.24 86.2692 557.536 86.5324C557.831 86.7956 558.18 86.9911 558.558 87.1055C558.937 87.2198 559.335 87.2502 559.727 87.1945V87.1945H576.064H577.328L578.136 86.3857L577.328 85.5917V85.5623Z" fill="#4DADA7"/>
<path d="M447.214 85.5476H443.247C442.105 85.4072 441.028 84.9399 440.144 84.2018C439.261 83.4637 438.609 82.4861 438.267 81.3864V81.2835V81.1953L438.091 80.0042V39.289C438.028 38.4248 437.654 37.6128 437.037 37.0042C436.421 36.3956 435.605 36.0318 434.741 35.9806H417.492C417.492 35.9806 416.713 35.9806 416.713 36.7158C416.701 36.8246 416.712 36.9349 416.745 37.0391C416.779 37.1434 416.834 37.2392 416.908 37.32C416.982 37.4009 417.072 37.465 417.173 37.5079C417.274 37.5507 417.383 37.5715 417.492 37.5686H421.312C421.854 37.5889 422.389 37.693 422.899 37.8774C423.686 38.1918 424.397 38.6705 424.985 39.2816C425.572 39.8926 426.023 40.6219 426.307 41.4211L426.528 42.7738V65.315C426.528 78.2251 417.903 86.7092 411.086 87.121C403.564 86.7534 401.654 80.5483 401.654 72.5934V39.289C401.598 38.425 401.228 37.6114 400.613 37.0019C399.999 36.3924 399.183 36.0291 398.319 35.9806H380.982C380.982 35.9806 380.101 35.9806 380.101 36.7599C380.101 37.2598 380.38 37.5098 380.982 37.5539H385.067L385.904 37.6421C386.812 37.8943 387.649 38.3552 388.348 38.9883C389.047 39.6214 389.589 40.4092 389.93 41.2887L390.077 41.774L390.165 42.862V71.4759C390.165 81.1806 393.617 83.7979 395.909 85.4888C398.201 87.1798 401.992 88.7531 408.309 88.7531H409.529C418.903 88.7531 423.81 82.9597 426.778 77.1223V84.9595C426.833 85.5664 427.118 86.1293 427.574 86.5336C428.03 86.9379 428.622 87.1532 429.231 87.1357H447.229L448.008 86.3416L447.2 85.5476H447.214Z" fill="#4DADA7"/>
<path d="M498.123 72.3582C497.75 72.3573 497.391 72.498 497.119 72.7519C496.846 73.0057 496.68 73.3538 496.653 73.7257C495.478 77.4605 492.437 86.8122 478.935 87.121C466.505 86.7975 463.714 75.6372 463.714 62.3154C463.714 38.892 471.838 36.2747 478.729 36.0983C483.357 36.1865 487.442 38.2156 487.442 41.8769C487.442 43.8913 485.752 47.6261 485.752 49.8906C485.752 52.8313 488.764 53.8312 491.511 53.8312H492.745C496.683 53.8312 498.945 51.4639 498.945 48.0967C498.945 38.2597 488.073 34.4955 479.596 34.4955H478.362C474.723 34.4309 471.108 35.0939 467.729 36.4457C464.35 37.7974 461.274 39.8107 458.682 42.3676C456.091 44.9244 454.035 47.9733 452.636 51.3355C451.237 54.6978 450.523 58.3057 450.535 61.9478C450.535 81.7981 465.917 88.7678 478.097 88.7678H479.331C494.758 88.7678 498.299 78.3427 499.504 74.505V74.3579L499.592 74.0786V73.8874C499.592 73.4974 499.437 73.1234 499.162 72.8477C498.886 72.5719 498.512 72.417 498.123 72.417" fill="#4DADA7"/>
<path d="M542.86 74.3285C541.391 74.0785 541.126 75.6812 541.126 75.6812C540.201 80.7541 536.954 85.3564 531.694 85.6799C528.624 85.4594 525.215 83.5626 525.215 75.196L525.303 38.7155C525.306 38.4286 525.416 38.1531 525.612 37.9435C525.808 37.7339 526.075 37.6054 526.361 37.5833H542.126L542.919 36.7746L542.126 35.9806H525.215V21.5854C525.304 20.6967 525.049 19.8075 524.502 19.1016C523.956 18.3956 523.159 17.9267 522.277 17.7918C521.743 17.703 521.202 17.6636 520.66 17.6742H513.682V35.9806H504.514L503.75 36.7746L504.514 37.5686H508.657H509.494C510.349 37.8025 511.142 38.2213 511.817 38.7955C512.493 39.3697 513.034 40.0853 513.402 40.8917C513.544 41.3706 513.633 41.8637 513.667 42.3621V48.0525V72.5787C513.667 80.8864 516.605 83.1214 518.589 84.5771C521.304 86.3262 524.455 87.2787 527.683 87.3268H530.871C540.509 87.3268 543.095 80.3424 543.903 76.2694C543.991 76.0047 544.138 74.5343 542.801 74.3138" fill="#4DADA7"/>
<path d="M41.5494 40.6859L27.1217 36.1571C23.1814 35.0493 19.4244 33.3699 15.9704 31.1724C9.30012 27.5405 6.25885 14.3952 15.9704 7.46964C19.7932 4.89892 24.2796 3.49421 28.8848 3.42605C41.1527 3.69072 47.9846 12.7337 50.3647 23.0705C50.4636 23.7973 50.8441 24.4561 51.4241 24.9045C52.0041 25.3529 52.7371 25.555 53.4647 25.4673V13.1748L53.2884 12.4984C51.0405 8.95473 43.0039 2.01447 29.5459 1.80862H28.3118C23.5509 1.62144 18.8328 2.77263 14.6921 5.13171C0.822761 13.8659 0.117537 25.0262 2.93843 33.0692C5.75932 41.1123 10.7253 44.0825 21.7444 47.7732L35.4668 51.9491C42.1665 53.9782 51.4666 58.5071 51.4666 69.5938C51.4666 77.3134 47.1912 88.8854 30.4715 88.9295C26.2402 88.9295 20.9069 88.6943 15.9263 85.7535C9.1532 82.4451 4.36357 72.5199 2.83559 65.3591C2.70428 64.8347 2.4182 64.3621 2.01462 64.0027C1.61104 63.6434 1.10868 63.4141 0.572993 63.3447H0.235069L0 63.5358V79.2249C2.18913 84.4007 12.8115 88.2973 15.7353 89.0766C21.2154 90.547 23.6984 90.547 30.4274 90.547H31.6469C50.4675 90.547 61.9127 77.3134 61.9127 62.4624C61.9127 46.0822 47.4997 42.4945 41.5494 40.6123" fill="#4DADA7"/>
<path d="M325.475 50.8757C325.104 50.8866 324.734 50.8216 324.388 50.6845C323.815 50.3022 323.624 49.5817 324.256 48.0966L324.109 48.4054L335.774 17.6447L348.278 50.8757H325.475ZM386.198 85.5476H379.381C378.157 85.4402 376.991 84.9764 376.028 84.2134C375.064 83.4503 374.345 82.4215 373.959 81.254L343.106 2.41145C342.121 -0.11763 340.638 -2.57088e-06 340.638 -2.57088e-06H340.358H339.668C339.444 0.0195481 339.232 0.10989 339.063 0.257932C338.894 0.405975 338.777 0.604033 338.728 0.823421L306.038 86.8709L306.214 87.1209H309.152L309.417 86.9151L322.493 52.5372H348.939L360.075 81.9451L360.575 83.2685C361.618 85.827 362.47 86.9004 365.394 87.1503H386.154C386.389 87.1503 386.771 86.9739 386.771 86.2828C386.783 86.1931 386.777 86.1019 386.752 86.015C386.727 85.928 386.684 85.8473 386.626 85.778C386.567 85.7087 386.495 85.6524 386.414 85.6127C386.333 85.573 386.244 85.5508 386.154 85.5476" fill="#4DADA7"/>
<path d="M626.782 111.868H617.805V97.8107H626.782V99.7369H619.935V103.825H625.768V105.721H619.935V109.941H626.782V111.868Z" fill="#4DADA7"/>
<path d="M638.521 107.868C638.537 108.452 638.412 109.031 638.156 109.556C637.9 110.081 637.521 110.536 637.052 110.883C635.999 111.657 634.713 112.046 633.408 111.985C632.498 112.032 631.587 111.892 630.733 111.574C629.879 111.255 629.099 110.765 628.442 110.133L629.911 108.662C630.389 109.118 630.955 109.472 631.573 109.702C632.192 109.932 632.851 110.033 633.511 110C634.262 110.045 635.008 109.85 635.641 109.442C635.891 109.262 636.092 109.023 636.226 108.745C636.359 108.468 636.421 108.161 636.405 107.854C636.425 107.584 636.387 107.313 636.294 107.059C636.2 106.805 636.052 106.575 635.861 106.383C635.413 106.043 634.879 105.834 634.319 105.78L632.659 105.545C631.674 105.456 630.74 105.066 629.985 104.427C629.638 104.077 629.369 103.658 629.195 103.197C629.02 102.736 628.944 102.244 628.971 101.751C628.958 101.2 629.062 100.653 629.278 100.146C629.493 99.6387 629.814 99.1834 630.22 98.8106C631.19 98.0167 632.421 97.613 633.672 97.6784C635.295 97.6097 636.88 98.1858 638.08 99.2811L636.714 100.619C635.883 99.8683 634.79 99.4771 633.672 99.5311C632.962 99.4553 632.25 99.6612 631.689 100.105C631.467 100.3 631.291 100.543 631.174 100.815C631.057 101.087 631.002 101.382 631.013 101.678C630.998 101.923 631.04 102.168 631.134 102.395C631.228 102.622 631.373 102.824 631.557 102.986C632.005 103.352 632.552 103.578 633.129 103.633L634.715 103.869C635.676 103.96 636.589 104.328 637.345 104.927C637.746 105.299 638.057 105.757 638.256 106.266C638.454 106.775 638.535 107.323 638.491 107.868" fill="#4DADA7"/>
<path d="M649.966 99.7369H646.117V111.868H643.986V99.7369H640.107V97.8107H649.966V99.7369Z" fill="#4DADA7"/>
<path d="M654.521 111.868H652.111V109.456H654.521V111.868Z" fill="#4DADA7"/>
<path d="M667.787 111.868H665.789V100.002L663.042 102.413V100.178L665.789 97.8107H667.787V111.868Z" fill="#4DADA7"/>
<path d="M679.541 98.8253C679.15 98.4521 678.689 98.1599 678.185 97.9656C677.681 97.7713 677.143 97.6787 676.603 97.6931C676.059 97.6795 675.518 97.7767 675.013 97.979C674.507 98.1812 674.049 98.4842 673.664 98.8694C672.935 99.7016 672.525 100.766 672.506 101.872C672.487 102.979 672.861 104.056 673.561 104.913C673.894 105.273 674.299 105.558 674.75 105.751C675.201 105.943 675.687 106.039 676.177 106.03L677.44 105.824L674.296 111.868H676.441L679.644 105.354C680.235 104.29 680.59 103.112 680.687 101.898C680.717 101.334 680.629 100.769 680.429 100.24C680.229 99.7111 679.922 99.2293 679.526 98.8253H679.541ZM678.057 103.707C677.86 103.921 677.618 104.09 677.35 104.202C677.081 104.313 676.791 104.365 676.5 104.354C676.204 104.367 675.909 104.313 675.637 104.196C675.364 104.079 675.122 103.901 674.928 103.678C674.545 103.182 674.347 102.568 674.369 101.943C674.333 101.292 674.543 100.651 674.957 100.149C675.145 99.9457 675.372 99.7836 675.625 99.6723C675.877 99.561 676.15 99.5029 676.426 99.5017C676.719 99.4892 677.01 99.5421 677.28 99.6566C677.549 99.771 677.79 99.9442 677.984 100.163C678.401 100.659 678.617 101.295 678.586 101.943C678.619 102.586 678.403 103.218 677.984 103.707" fill="#4DADA7"/>
<path d="M690.061 98.8253C689.67 98.4521 689.209 98.1599 688.705 97.9656C688.2 97.7713 687.663 97.6787 687.122 97.6931C686.579 97.6812 686.038 97.7792 685.533 97.9814C685.028 98.1835 684.569 98.4855 684.184 98.8694C683.795 99.2832 683.493 99.7711 683.296 100.304C683.099 100.837 683.011 101.404 683.038 101.972C682.994 103.053 683.373 104.108 684.096 104.913C684.428 105.273 684.833 105.56 685.284 105.752C685.734 105.945 686.221 106.04 686.711 106.03L687.975 105.824L684.83 111.868H686.99L690.178 105.354C690.769 104.29 691.125 103.112 691.222 101.898C691.251 101.334 691.163 100.769 690.963 100.24C690.764 99.7111 690.456 99.2293 690.061 98.8253V98.8253ZM688.592 103.707C688.393 103.92 688.151 104.087 687.883 104.199C687.614 104.31 687.325 104.363 687.034 104.354C686.74 104.37 686.446 104.318 686.176 104.2C685.905 104.083 685.666 103.904 685.477 103.678C685.095 103.169 684.889 102.549 684.889 101.913C684.889 101.277 685.095 100.658 685.477 100.149C685.671 99.9341 685.909 99.7649 686.176 99.6531C686.443 99.5413 686.731 99.4896 687.019 99.5017C687.311 99.4923 687.602 99.5466 687.871 99.6608C688.14 99.7751 688.381 99.9466 688.577 100.163C688.989 100.661 689.199 101.297 689.165 101.943C689.201 102.584 688.991 103.216 688.577 103.707" fill="#4DADA7"/>
<path d="M699.273 109.515C699.06 109.735 698.803 109.908 698.52 110.024C698.237 110.141 697.933 110.198 697.627 110.191C697.323 110.199 697.021 110.143 696.74 110.026C696.459 109.91 696.206 109.736 695.997 109.515C695.777 109.298 695.605 109.039 695.488 108.754C695.372 108.468 695.315 108.162 695.321 107.853C695.318 107.546 695.376 107.24 695.492 106.955C695.608 106.67 695.779 106.41 695.997 106.192C696.206 105.971 696.459 105.797 696.74 105.681C697.021 105.564 697.323 105.508 697.627 105.516C697.933 105.509 698.237 105.566 698.52 105.683C698.803 105.799 699.06 105.972 699.273 106.192C699.49 106.41 699.661 106.67 699.777 106.955C699.893 107.24 699.952 107.546 699.949 107.853C699.954 108.162 699.897 108.468 699.781 108.754C699.665 109.039 699.492 109.298 699.273 109.515V109.515ZM700.037 104.604C700.559 104.313 700.991 103.886 701.289 103.368C701.587 102.85 701.738 102.261 701.726 101.663C701.747 101.137 701.654 100.612 701.454 100.125C701.254 99.6375 700.951 99.1992 700.566 98.8399C699.758 98.1222 698.707 97.7386 697.627 97.7666C696.546 97.7279 695.491 98.113 694.689 98.8399C694.302 99.1985 693.997 99.6362 693.794 100.123C693.591 100.611 693.496 101.136 693.514 101.663C693.505 102.26 693.658 102.848 693.955 103.366C694.252 103.883 694.684 104.311 695.203 104.604C694.61 104.925 694.116 105.404 693.777 105.988C693.437 106.571 693.265 107.237 693.278 107.912C693.265 108.465 693.371 109.013 693.589 109.521C693.807 110.028 694.132 110.483 694.542 110.853C695.385 111.591 696.478 111.98 697.598 111.941C698.735 111.988 699.846 111.593 700.698 110.838C701.108 110.469 701.433 110.015 701.648 109.507C701.864 108.999 701.966 108.449 701.947 107.898C701.961 107.221 701.787 106.553 701.445 105.969C701.102 105.385 700.605 104.907 700.007 104.589L700.037 104.604ZM699.111 103.119C698.919 103.312 698.69 103.465 698.438 103.569C698.185 103.673 697.915 103.724 697.642 103.722C697.369 103.727 697.098 103.676 696.845 103.573C696.592 103.469 696.364 103.314 696.173 103.119C695.79 102.726 695.579 102.197 695.585 101.648C695.582 101.1 695.793 100.573 696.173 100.178C696.361 99.9783 696.589 99.8202 696.842 99.7138C697.095 99.6075 697.368 99.5552 697.642 99.5604C697.916 99.557 698.188 99.6101 698.441 99.7163C698.694 99.8225 698.922 99.9797 699.111 100.178C699.486 100.576 699.696 101.102 699.699 101.648C699.699 102.196 699.489 102.722 699.111 103.119" fill="#4DADA7"/>
</g>
<defs>
<clipPath id="clip0_6_24">
<rect width="708" height="112" fill="white"/>
</clipPath>
</defs>
</svg>
